<svg id="calendar-and-clock" xmlns="http://www.w3.org/2000/svg" width="228.511" height="207.741" viewBox="0 0 228.511 207.741">
  <defs>
    <style>
      .cls-1 {
        fill: #9a0000;
      }
    </style>
  </defs>
  <g id="Layer_1_31_" transform="translate(0 0)">
    <g id="Group_300" data-name="Group 300">
      <path id="Path_325" data-name="Path 325" class="cls-1" d="M51.344,48.878a10.39,10.39,0,0,0,10.39-10.385V12.526a10.387,10.387,0,1,0-20.775,0v5.192H16.29V38.493H40.959A10.386,10.386,0,0,0,51.344,48.878Z" transform="translate(62.909 -2.136)"/>
      <path id="Path_326" data-name="Path 326" class="cls-1" d="M62.822,48.878a10.387,10.387,0,0,0,10.39-10.385V12.526a10.385,10.385,0,1,0-20.77,0v5.192H27.773V38.493H52.442A10.388,10.388,0,0,0,62.822,48.878Z" transform="translate(107.254 -2.136)"/>
      <path id="Path_327" data-name="Path 327" class="cls-1" d="M218.116,17.718h-27.26V38.493h16.875V69.652H20.775V38.493H48.04a10.385,10.385,0,0,0,20.77,0V12.526a10.385,10.385,0,1,0-20.77,0v5.192H10.385A10.386,10.386,0,0,0,0,28.1V183.9a10.387,10.387,0,0,0,10.385,10.39H63.739a61.932,61.932,0,0,1-9.753-20.775H20.775V80.037H207.731v93.478H174.525a62.075,62.075,0,0,1-9.753,20.775h53.349a10.388,10.388,0,0,0,10.39-10.39V28.1A10.394,10.394,0,0,0,218.116,17.718Z" transform="translate(0 -2.136)"/>
      <path id="Path_328" data-name="Path 328" class="cls-1" d="M54.685,74.827l-16.438-9.49A8.211,8.211,0,0,0,34.781,59.3V30.653a4.721,4.721,0,1,0-9.442,0V59.3a8.238,8.238,0,0,0,8.207,14.226L49.965,83a4.721,4.721,0,1,0,4.721-8.178ZM30.065,69.6a3.542,3.542,0,1,1,3.544-3.544A3.547,3.547,0,0,1,30.065,69.6Z" transform="translate(84.188 89.741)"/>
      <path id="Path_329" data-name="Path 329" class="cls-1" d="M64.752,23.5a51.936,51.936,0,1,0,51.934,51.939A51.994,51.994,0,0,0,64.752,23.5Zm0,94.422a42.487,42.487,0,1,1,42.483-42.492A42.535,42.535,0,0,1,64.752,117.922Z" transform="translate(49.501 80.368)"/>
    </g>
  </g>
</svg>
