<svg id="remove" xmlns="http://www.w3.org/2000/svg" width="27.816" height="27.816" viewBox="0 0 27.816 27.816">
  <defs>
    <style>
      .cls-1 {
        fill: #ff8787;
      }
    </style>
  </defs>
  <path id="Path_346" data-name="Path 346" class="cls-1" d="M13.908,0A13.908,13.908,0,1,0,27.816,13.908,13.908,13.908,0,0,0,13.908,0Zm0,26.078a12.17,12.17,0,1,1,12.17-12.17A12.17,12.17,0,0,1,13.908,26.078Zm0,0"/>
  <path id="Path_347" data-name="Path 347" class="cls-1" d="M140.455,126.933a.869.869,0,0,0-1.229,0l-5.532,5.532-5.532-5.532a.869.869,0,0,0-1.25,1.208l.021.021,5.532,5.532-5.532,5.532a.869.869,0,0,0,1.208,1.25l.021-.021,5.532-5.532,5.532,5.532a.869.869,0,0,0,1.229-1.229l-5.532-5.532,5.532-5.532a.869.869,0,0,0,0-1.229Zm0,0" transform="translate(-119.786 -119.786)"/>
</svg>
